<svg width="26px" height="26px" viewBox="0 0 26 26" version="1.1" xmlns="http://www.w3.org/2000/svg" xmlns:xlink="http://www.w3.org/1999/xlink">
    <defs>
        <path d="M24.000171,6.99794932 C24.0001716,6.99844812 24.0001718,6.99894692 24.0001717,6.9994457 C24.0001717,6.99963046 24.0001717,6.99981523 24.0001717,7 L24.0001717,19 C24.0001717,20.6522847 22.652446,22 21.0001483,22 L5.00002342,22 C3.34772577,22 2,20.6522847 2,19 L2,7 C2,6.99981523 2.00000002,6.99963046 2.00000005,6.9994457 C1.99999989,6.9989469 2.00000011,6.99844808 2.00000069,6.99794925 C2.0011153,5.34660024 3.34840941,4 5.00002342,4 L21.0001483,4 C22.6517623,4 23.9990565,5.34660028 24.000171,6.99794932 Z M21.8935085,6.5539486 C21.7281283,6.22692322 21.3880471,6 21.0000859,6 L5.00008586,6 C4.61212463,6 4.27204341,6.22692322 4.10666324,6.5539486 L13.0000859,12.7793444 L21.8935085,6.5539486 Z M22.0000859,8.92065556 L13.5735482,14.8192319 C13.2292281,15.060256 12.7709437,15.060256 12.4266235,14.8192319 L4.00008586,8.92065556 L4.00008586,19 C4.00008586,19.5477153 4.45237061,20 5.00008586,20 L21.0000859,20 C21.5478011,20 22.0000859,19.5477153 22.0000859,19 L22.0000859,8.92065556 Z" id="path-1"></path>
    </defs>
    <g id="Icons/Message" stroke="none" stroke-width="1" fill="none" fill-rule="evenodd">
        <rect id="base" opacity="0" x="0" y="0" width="26" height="26"></rect>
        <mask id="mask-2" fill="white">
            <use xlink:href="#path-1"></use>
        </mask>
        <use id="Shape" fill="#fff" fill-rule="nonzero" xlink:href="#path-1"></use>
        <g id="Colors/dark1" mask="url(#mask-2)" fill="#fff">
            <rect id="Color" x="0" y="0" width="26" height="26"></rect>
        </g>
    </g>
</svg>