<?xml version="1.0" encoding="UTF-8" standalone="no"?>
<svg width="26px" height="26px" viewBox="0 0 26 26" version="1.1" xmlns="http://www.w3.org/2000/svg" xmlns:xlink="http://www.w3.org/1999/xlink">
    <defs>
        <path d="M21.172003,17.5210292 C21.1837924,17.0354089 20.8458895,16.6372997 20.3946564,16.5737152 C19.4491135,16.449225 18.5207132,16.2183538 17.6251036,15.8847349 C17.2911993,15.7594394 16.9147817,15.8395781 16.6647637,16.086363 L15.5043506,17.2447544 C15.2135044,17.5350939 14.7641738,17.5956473 14.4066168,17.392689 C11.9761294,16.0130833 9.96372187,14.0041818 8.58170851,11.5779286 C8.37839602,11.2209946 8.43905511,10.7724468 8.72990124,10.4821073 L9.88670928,9.32733485 C10.1375299,9.0741334 10.2178085,8.69837162 10.0915222,8.36299124 C9.75809316,7.47099968 9.52681907,6.54421686 9.40325921,5.60870729 C9.33907139,5.15536918 8.94816897,4.81977877 8.48055567,4.82432889 L5.7402828,4.82432848 C5.48380146,4.8245696 5.23923084,4.93240992 5.06631385,5.12150655 C4.89339687,5.31060318 4.8080568,5.56354293 4.82973954,5.80431023 C5.11450372,8.48120228 6.02692676,11.0534909 7.49741511,13.3195146 C8.8283276,15.4103342 10.6040713,17.1829843 12.7056483,18.5161334 C14.9586509,19.974652 17.5229581,20.8852787 20.1760654,21.1732085 C20.4322992,21.1963254 20.6864223,21.1105329 20.8760037,20.936908 C21.0655851,20.7632832 21.1730548,20.517917 21.172003,20.257387 L21.172003,17.5210292 Z M22.9994177,20.2536847 C23.0025506,21.024168 22.6801414,21.7602664 22.1113972,22.281141 C21.542653,22.8020156 20.7802838,23.059393 19.9951227,22.9884075 C17.041408,22.6680214 14.2041571,21.6604681 11.7184541,20.0512606 C9.3975565,18.579035 7.42984048,16.6147471 5.95937099,14.3046226 C4.33715026,11.8048503 3.32760929,8.9587684 3.01113421,5.98272077 C2.94188387,5.21773409 3.19790408,4.45891482 3.71665503,3.89162493 C4.23540597,3.32433504 4.96911785,3.00081409 5.73942234,3.00009034 L8.47156325,3.00013452 C9.84742586,2.98661669 11.0201331,3.99338791 11.2138442,5.36178834 C11.3205304,6.1692829 11.5183834,6.96213757 11.8028571,7.72317083 C12.1793997,8.72313864 11.9385638,9.85042397 11.182497,10.6136473 L10.5272815,11.2677213 C11.6016742,12.950261 13.0318943,14.3779887 14.7173709,15.4505089 L15.3762063,14.7928327 C16.1371363,14.0416819 17.266389,13.8012656 18.2660406,14.1763815 C19.0304634,14.4611303 19.8247018,14.6586386 20.6417694,14.7662511 C22.0158471,14.9597622 23.0276148,16.1475492 22.9994252,17.5312238 L22.9994177,20.2536847 Z" id="path-1"></path>
    </defs>
    <g id="Icons/Phone" stroke="none" stroke-width="1" fill="none" fill-rule="evenodd">
        <rect id="base" opacity="0" x="0" y="0" width="26" height="26"></rect>
        <mask id="mask-2" fill="white">
            <use xlink:href="#path-1"></use>
        </mask>
        <use id="Shape" fill="#fff" fill-rule="nonzero" xlink:href="#path-1"></use>
        <g id="Colors/dark1" mask="url(#mask-2)" fill="#fff">
            <rect id="Color" x="0" y="0" width="26" height="26"></rect>
        </g>
    </g>
</svg>